<?xml version="1.0" encoding="iso-8859-1"?><!-- Generator: Adobe Illustrator 21.1.0, SVG Export Plug-In . SVG Version: 6.00 Build 0)  -->
<svg xmlns="http://www.w3.org/2000/svg" xmlns:xlink="http://www.w3.org/1999/xlink" viewBox="0 0 64 64" width="64px" height="64px">
<!-- <style type="text/css">
	.st0{fill:#FFFFFF;}
	.st1{fill:#005e8f;}
</style> -->
    <g>
        <path class="st0" d="M55,26H20v-7c0-6.065,4.935-11,11-11h2c6.065,0,11,4.935,11,11c0,1.654,1.346,3,3,3h2c1.654,0,3-1.346,3-3C52,8.523,43.477,0,33,0h-2C20.523,0,12,8.523,12,19v7H9c-1.654,0-3,1.346-3,3v30c0,1.654,1.346,3,3,3h46c1.654,0,3-1.346,3-3V29C58,27.346,56.654,26,55,26z M36,2.281C43.946,3.704,50,10.651,50,19c0,0.551-0.448,1-1,1h-2c-0.552,0-1-0.449-1-1c0-6.134-4.276-11.277-10-12.637V2.281z M30,2.051C30.333,2.031,30.662,2,31,2h2c0.338,0,0.667,0.031,1,0.051v4C33.669,6.025,33.338,6,33,6h-2c-0.338,0-0.669,0.025-1,0.051V2.051z M14,19c0-8.349,6.054-15.296,14-16.719v4.082C22.276,7.723,18,12.866,18,19v7h-4V19z M56,59c0,0.551-0.448,1-1,1H9c-0.552,0-1-0.449-1-1V29c0-0.551,0.448-1,1-1h46c0.552,0,1,0.449,1,1V59z"/>
        <path class="st0" d="M32,52c5.514,0,10-4.486,10-10s-4.486-10-10-10s-10,4.486-10,10S26.486,52,32,52z M32,34c4.411,0,8,3.589,8,8s-3.589,8-8,8s-8-3.589-8-8S27.589,34,32,34z"/>
        <path d="M32,38.833c0.553,0,1-0.448,1-1V36c0-0.552-0.447-1-1-1s-1,0.448-1,1v1.833C31,38.386,31.447,38.833,32,38.833z"/>
        <path d="M32,48.833c0.553,0,1-0.448,1-1V46c0-0.552-0.447-1-1-1s-1,0.448-1,1v1.833C31,48.386,31.447,48.833,32,48.833z"/>
        <path d="M28.833,42c0-0.552-0.447-1-1-1H26c-0.553,0-1,0.448-1,1s0.447,1,1,1h1.833C28.386,43,28.833,42.552,28.833,42z"/>
        <path d="M35.167,42c0,0.552,0.447,1,1,1H38c0.553,0,1-0.448,1-1s-0.447-1-1-1h-1.833C35.614,41,35.167,41.448,35.167,42z"/>
        <path d="M28.405,39.736c0.195,0.195,0.451,0.293,0.707,0.293s0.512-0.098,0.707-0.293c0.391-0.39,0.391-1.023,0-1.414l-1.296-1.296c-0.391-0.391-1.023-0.391-1.414,0c-0.391,0.39-0.391,1.023,0,1.414L28.405,39.736z"/>
        <path d="M35.477,46.808c0.195,0.195,0.451,0.293,0.707,0.293s0.512-0.098,0.707-0.293c0.391-0.39,0.391-1.023,0-1.414l-1.296-1.296c-0.391-0.391-1.023-0.391-1.414,0c-0.391,0.39-0.391,1.023,0,1.414L35.477,46.808z"/>
        <path d="M28.405,44.215l-1.296,1.296c-0.391,0.391-0.391,1.024,0,1.414c0.195,0.195,0.451,0.293,0.707,0.293s0.512-0.098,0.707-0.293l1.296-1.296c0.391-0.391,0.391-1.024,0-1.414C29.429,43.824,28.796,43.824,28.405,44.215z"/>
        <path d="M35.005,40.029c0.256,0,0.512-0.098,0.707-0.293l1.297-1.296c0.391-0.39,0.391-1.023,0-1.414s-1.023-0.391-1.414,0l-1.297,1.296c-0.391,0.39-0.391,1.023,0,1.414C34.493,39.932,34.749,40.029,35.005,40.029z"/>
        <path d="M53,56h-4c-0.553,0-1,0.448-1,1s0.447,1,1,1h4c0.553,0,1-0.448,1-1S53.553,56,53,56z"/>
        <path d="M45,56H11c-0.553,0-1,0.448-1,1s0.447,1,1,1h34c0.553,0,1-0.448,1-1S45.553,56,45,56z"/>
    </g>
</svg>