<?xml version="1.0" standalone="no"?>
<!DOCTYPE svg PUBLIC "-//W3C//DTD SVG 20010904//EN"
 "http://www.w3.org/TR/2001/REC-SVG-20010904/DTD/svg10.dtd">
<svg version="1.0" xmlns="http://www.w3.org/2000/svg"
 width="700.000000pt" height="700.000000pt" viewBox="0 0 700.000000 700.000000"
 preserveAspectRatio="xMidYMid meet">
<metadata>
Created by potrace 1.14, written by Peter Selinger 2001-2017
</metadata>
<g transform="translate(0.000000,700.000000) scale(0.100000,-0.100000)"
fill="#000000" stroke="none">
<path d="M3417 6835 c-1 -2 -40 -5 -87 -8 -161 -12 -416 -68 -525 -117 -11 -5
-57 -25 -102 -44 -118 -51 -302 -157 -382 -222 -260 -208 -425 -401 -559 -654
-85 -159 -169 -399 -196 -558 -3 -15 -10 -56 -16 -92 -6 -36 -14 -153 -17
-262 -6 -189 -5 -198 17 -243 24 -49 48 -70 108 -90 l37 -13 0 -78 0 -78 -120
-2 c-93 -1 -133 -6 -180 -23 -131 -46 -233 -146 -276 -270 l-23 -66 -1 -1480
c-2 -1604 -4 -1544 53 -1649 58 -108 185 -202 302 -222 25 -4 947 -8 2050 -8
1879 -1 2009 0 2074 16 118 30 211 99 270 201 63 107 59 -1 61 1622 1 893 -2
1498 -8 1525 -36 171 -186 322 -343 347 -21 3 -750 6 -1619 7 l-1580 1 -3 81
-3 81 38 6 c42 7 98 54 115 97 6 14 11 86 13 160 3 153 13 257 26 283 6 9 8
17 5 17 -2 0 4 26 14 58 90 287 315 527 595 631 212 79 516 78 700 -4 19 -8
52 -22 73 -31 102 -45 253 -167 345 -279 93 -115 173 -298 200 -461 11 -64 40
-105 95 -133 33 -17 734 -18 785 -2 46 15 94 70 103 116 5 27 -2 145 -11 175
-1 3 -5 28 -10 55 -5 28 -9 52 -10 55 -40 218 -165 504 -308 708 -324 462
-830 769 -1373 832 -79 10 -320 20 -327 15z"/>
</g>
</svg>
